<svg id="レイヤー_1" data-name="レイヤー 1" xmlns="http://www.w3.org/2000/svg" viewBox="0 0 1457.74 122.27"><title>title</title><path d="M12.12,95.28C3.6,95.28,0,91.56,0,82.44V14.76c0-9.24,3.6-13,12.12-13H40.44c17.28,0,27.24,8.28,27.24,22.68,0,11.4-4.92,18.12-15.24,21.48,12.24,2.52,18.48,10.44,18.48,23.4,0,16.32-10.68,25.92-29.16,25.92Zm27.72-54c10.32,0,16.32-5.76,16.32-15.36,0-9.36-5.64-14.16-16.56-14.16h-25c-2.28,0-3.48,1.44-3.48,3.84V41.28ZM11.16,81.36c0,2.64,1.2,4,3.84,4H40.44c12.12,0,18.6-6,18.6-17C59,57,52.44,51.12,40.2,51.12h-29Z"/><path d="M90.48,12.24c-3,0-4.68-2.28-4.68-5.16S87.48,1.8,90.48,1.8h55.2c4.08,0,6.24,2.64,6.24,6.48s-1.44,5.88-4.08,9.24L99.48,80a72.42,72.42,0,0,1-5.28,5.28c2.52-.24,5.64-.48,7.68-.48h47.28c3,0,4.56,2.16,4.56,5s-1.68,5.4-4.8,5.4H88c-3.84,0-6.36-2.76-6.36-6.6s1.56-6,4-9L134.28,17a71.18,71.18,0,0,1,5.28-5.4,65.14,65.14,0,0,1-7.56.6Z"/><path d="M201.48,54.36c2.88,0,4.56,2,4.56,5.4S204.24,65,201.36,65H168.84c-2.88,0-4.68-1.92-4.68-5.28s1.68-5.4,4.56-5.4Z"/><path d="M233.4,81c0,2.76,1.8,3.84,4.44,3.84h43c3.12,0,4.8,2.16,4.8,5.16s-1.68,5.28-4.8,5.28H234.36c-8.52,0-12.24-3.72-12.24-12.84V14.76c0-9.24,3.72-13,12.24-13h45.35c3.12,0,4.8,2.16,4.8,5.16s-1.68,5.28-4.8,5.28H237.48c-2.88,0-4.08,1.32-4.08,4.2V41.28h40.92c3,0,4.67,2.16,4.67,5.16,0,2.76-1.79,5-4.67,5H233.4Z"/><path d="M360.83,6c0-3.36,2.4-4.92,5.76-4.92s5.64,1.56,5.64,4.92V88.44c0,4.68-2.4,7.56-7.2,7.56-5.16,0-7.08-2-10.08-6.84L323.16,37.68A273.36,273.36,0,0,1,309.6,12.24c.72,7.68,1.68,24.36,1.68,42V91.08c0,3.24-2.4,4.92-5.64,4.92s-5.76-1.68-5.76-4.92V8.28c0-4.44,2.88-7.2,7.56-7.2,5.4,0,7.44,2.16,9.72,5.76l30.23,49.08c5.52,9,12.24,21.84,15.36,28.56-.72-7.44-1.92-24.84-1.92-42.12Z"/><path d="M433.19,14.76c0-9.24,3.72-13,12.24-13h21.36c26.52,0,42.12,16.8,42.12,45.72,0,29.88-15.84,47.76-42.12,47.76H445.43c-8.52,0-12.24-3.72-12.24-12.84Zm11.4,66c0,2.76,1.44,4.08,3.84,4.08h17.76C485.63,84.84,497,71,497,47.64c0-22.92-10.68-35.52-30.48-35.52h-18a3.72,3.72,0,0,0-4,4Z"/><path d="M537.47,9a8.1,8.1,0,1,1-16.2,0,8.1,8.1,0,0,1,16.2,0ZM523.91,32.76c0-3.12,2-4.68,5.4-4.68s5.52,1.56,5.52,4.68V91.2c0,3.24-2.28,4.8-5.52,4.8s-5.4-1.56-5.4-4.8Z"/><path d="M579.11,27c15.84,0,22.32,8.76,25.32,16.32a5.32,5.32,0,0,1,.36,1.8c0,2.28-1.8,3.72-3.6,4.44a10,10,0,0,1-2.64.36,4.18,4.18,0,0,1-4.2-2.76c-2.28-6.12-5.88-10.8-15-10.8-12.48,0-19.32,10.56-19.32,25.8,0,15.72,6.72,25.68,19.44,25.68,9.36,0,13.08-4.56,15.36-11a4.51,4.51,0,0,1,4.44-3.24,6.27,6.27,0,0,1,2.52.48c2.16.48,3.84,1.92,3.84,4.08a5.06,5.06,0,0,1-.48,2.16c-3.24,8.28-9.6,16.92-25.92,16.92-19.44,0-30.36-14.28-30.36-34.92S559.43,27,579.11,27Z"/><path d="M625.55,14.28c0-3.12,2-4.8,5.4-4.8,3.12,0,5.4,1.68,5.4,4.8V28.8h15.36c3,0,4.44,1.92,4.44,4.8s-1.56,4.68-4.44,4.68H636.35v40.2c0,5.88,2.52,8.4,7,8.4a13,13,0,0,0,7.08-2,4.89,4.89,0,0,1,2.16-.6,4.45,4.45,0,0,1,4,3.12A6.84,6.84,0,0,1,657,90a4.7,4.7,0,0,1-2.52,4.32A24.86,24.86,0,0,1,642.59,97c-9.84,0-17-4.92-17-17.52V38.28h-9.36c-2.88,0-4.2-1.92-4.2-4.68s1.32-4.8,4.32-4.8h9.24Z"/><path d="M680.39,9a8.1,8.1,0,1,1-16.2,0,8.1,8.1,0,0,1,16.2,0ZM666.83,32.76c0-3.12,2-4.68,5.4-4.68s5.52,1.56,5.52,4.68V91.2c0,3.24-2.28,4.8-5.52,4.8s-5.4-1.56-5.4-4.8Z"/><path d="M753.35,61.92c0,20.88-11.52,35.28-30.24,35.28-19.8,0-31.32-13.92-31.32-35.28,0-20.76,11.64-34.8,31.08-34.8C742.07,27.12,753.35,41,753.35,61.92Zm-50.52.36C702.83,77.52,710,88,722.39,88c13.08,0,19.92-10.2,19.92-26.16,0-15.12-6.84-25.44-19.08-25.44C710.27,36.36,702.83,46.32,702.83,62.28Z"/><path d="M822.47,91.2c0,3.24-2.4,4.8-5.52,4.8s-5.52-1.56-5.52-4.8V52.8c0-10.2-4.08-16-13.08-16-6.48,0-11.88,2.88-16,8.52a19,19,0,0,0-4.2,12.24V91.2c0,3.24-2.28,4.8-5.4,4.8-3.36,0-5.52-1.56-5.52-4.8V32.76c0-3.12,2.28-4.68,5.64-4.68,3.12,0,5.28,1.56,5.28,4.68V36c0,1.56-.36,2.76-.48,5,4.2-8.52,11.4-13.92,22.8-13.92,14.28,0,22,8.64,22,23.4Z"/><path d="M879.83,47.64c0-7.92-4.32-11.4-13.8-11.4-8.76,0-13.08,3.36-15.12,8.88a4.59,4.59,0,0,1-4.68,3.12,7,7,0,0,1-2.76-.48c-2.28-.72-4-2.4-4-4.56a6,6,0,0,1,.24-1.44c1.2-3.72,4.32-7.2,7.08-9.36,4.2-3.24,9.6-5.28,19.32-5.28,16.08,0,24,6.36,24,20.52V80.4A39.17,39.17,0,0,0,891.47,91a4.26,4.26,0,0,1,.24,1.2c0,1.92-1.8,3.6-4.8,3.84h-1.08c-2.4,0-4.56-.72-5-2.88a34.13,34.13,0,0,1-.72-6c-4.56,5.16-10.92,9.84-22.8,9.84C844.07,97,836,89.52,836,77.16c0-11.28,6.72-18.48,18.12-21.6,6.6-1.8,12.84-2.52,25.68-2.76Zm0,13.8c-14,.36-20.64,1.56-25.44,4s-7.32,6.12-7.32,11.88c0,6.24,4.8,10.44,12,10.44a22.6,22.6,0,0,0,17.64-8.52c2.28-2.88,3.12-5.16,3.12-9.72Z"/><path d="M909.71,32.76c0-3.12,2.28-4.68,5.64-4.68,3,0,5.4,1.56,5.4,4.68V35.4A51.86,51.86,0,0,1,920,41a22.5,22.5,0,0,1,21-13.68,21,21,0,0,1,4.8.6,4,4,0,0,1,3.84,4.32,13.36,13.36,0,0,1-.24,2C949,36.84,947.27,39,944.75,39a3.32,3.32,0,0,1-1.08-.12,24.18,24.18,0,0,0-5.76-.72c-5.16.12-9.12,2.76-12.12,6.6a21.53,21.53,0,0,0-5,13.32V91.2c0,3.24-2.4,4.8-5.4,4.8-3.36,0-5.64-1.56-5.64-4.8Z"/><path d="M1003.31,31.32A4.59,4.59,0,0,1,1008,28.2a13.47,13.47,0,0,1,2.16.24c2.27.6,4,2.28,4,4.44a6.4,6.4,0,0,1-.37,2l-28.31,70.2c-4.2,10.32-9.12,17.15-20.88,17.15a23.45,23.45,0,0,1-8.64-1.56,4.44,4.44,0,0,1-3.36-4.31,7.62,7.62,0,0,1,.6-2.76,4.83,4.83,0,0,1,4.44-3.36,5.57,5.57,0,0,1,2.28.48,15.8,15.8,0,0,0,6,1.56c5.16,0,7.68-4.56,9.84-10.08l3.36-8.4L954.83,35a5.44,5.44,0,0,1-.36-1.92c0-2.16,1.8-4,4-4.68a9.14,9.14,0,0,1,2.52-.36,4.59,4.59,0,0,1,4.56,3l15.12,39.84c1.44,3.84,2.52,8.28,3.6,12a122.93,122.93,0,0,1,4-11.76Z"/><path d="M1103.26,42.36c18.72,4,28.92,10.32,28.92,27.72,0,15.48-11.88,27.12-33.36,27.12-27.36,0-33-14.16-35.87-23.88a8.26,8.26,0,0,1-.24-1.56c0-2.64,2-4.44,4.56-5a11.71,11.71,0,0,1,2-.24,5.14,5.14,0,0,1,5.27,3.6c2.16,8,6.12,17,23.64,17,13.68,0,22.2-6.6,22.2-16.92,0-9.84-5.4-14.16-19.56-17l-9.6-2c-18-3.72-26.15-10.56-26.15-26.28,0-12.6,9.35-24.84,31.91-24.84,21.6,0,29,11.52,31.68,20.16a4.82,4.82,0,0,1,.36,1.8c0,2.52-2,4.32-4.44,4.8a10.57,10.57,0,0,1-2,.24,5.33,5.33,0,0,1-5.28-3.48c-1.92-6.84-7-13.56-20.28-13.56-13.92,0-20.28,7-20.28,14.88,0,8.64,4.2,13.08,17.64,15.72Z"/><path d="M1154,64.08c.24,14.76,7.56,24,20.52,24,8.64,0,13.44-4.32,16.32-10.68a4.71,4.71,0,0,1,4.32-3,9.35,9.35,0,0,1,2.52.48c2,.6,3.72,2,3.72,4.2a3.7,3.7,0,0,1-.6,2.16c-3.84,7.92-10.8,15.84-26.4,15.84-19.68,0-31.08-13.92-31.08-34.68s10.8-35.28,30.36-35.28c17.52,0,27.36,13.68,28.56,29.4v1c0,4.32-2.28,6.6-6,6.6Zm35.52-8.76c1.32,0,1.8-.48,1.8-1.56v-.6c-1.44-8.52-6.6-17.28-17.64-17.28-11.52,0-17.76,7.68-19.32,19.44Z"/><path d="M1255.9,47.64c0-7.92-4.32-11.4-13.8-11.4-8.76,0-13.08,3.36-15.12,8.88a4.59,4.59,0,0,1-4.68,3.12,7,7,0,0,1-2.76-.48c-2.28-.72-4-2.4-4-4.56a6,6,0,0,1,.24-1.44c1.2-3.72,4.32-7.2,7.08-9.36,4.2-3.24,9.6-5.28,19.32-5.28,16.08,0,24,6.36,24,20.52V80.4A39.17,39.17,0,0,0,1267.54,91a4.26,4.26,0,0,1,.24,1.2c0,1.92-1.8,3.6-4.8,3.84h-1.08c-2.4,0-4.56-.72-5-2.88a34.13,34.13,0,0,1-.72-6c-4.56,5.16-10.92,9.84-22.8,9.84-13.2,0-21.24-7.44-21.24-19.8,0-11.28,6.72-18.48,18.12-21.6,6.6-1.8,12.84-2.52,25.68-2.76Zm0,13.8c-14,.36-20.64,1.56-25.44,4s-7.32,6.12-7.32,11.88c0,6.24,4.8,10.44,12,10.44a22.6,22.6,0,0,0,17.64-8.52c2.28-2.88,3.12-5.16,3.12-9.72Z"/><path d="M1285.78,32.76c0-3.12,2.28-4.68,5.64-4.68,3,0,5.4,1.56,5.4,4.68V35.4a51.86,51.86,0,0,1-.72,5.64,22.5,22.5,0,0,1,21-13.68,21,21,0,0,1,4.8.6,4,4,0,0,1,3.84,4.32,13.36,13.36,0,0,1-.24,2c-.48,2.52-2.16,4.68-4.68,4.68a3.32,3.32,0,0,1-1.08-.12,24.18,24.18,0,0,0-5.76-.72c-5.16.12-9.12,2.76-12.12,6.6a21.53,21.53,0,0,0-5,13.32V91.2c0,3.24-2.4,4.8-5.4,4.8-3.36,0-5.64-1.56-5.64-4.8Z"/><path d="M1363.06,27c15.84,0,22.32,8.76,25.32,16.32a5.32,5.32,0,0,1,.36,1.8c0,2.28-1.8,3.72-3.6,4.44a10,10,0,0,1-2.64.36,4.18,4.18,0,0,1-4.2-2.76c-2.28-6.12-5.88-10.8-15-10.8-12.48,0-19.32,10.56-19.32,25.8,0,15.72,6.72,25.68,19.44,25.68,9.36,0,13.08-4.56,15.36-11a4.51,4.51,0,0,1,4.44-3.24,6.27,6.27,0,0,1,2.52.48c2.16.48,3.84,1.92,3.84,4.08a5.06,5.06,0,0,1-.48,2.16c-3.24,8.28-9.6,16.92-25.92,16.92-19.44,0-30.36-14.28-30.36-34.92S1343.38,27,1363.06,27Z"/><path d="M1457.74,91.2c0,3.24-2.4,4.8-5.52,4.8s-5.4-1.56-5.4-4.8V52.8c0-10.2-4.2-15.84-13.2-15.84-6.72,0-12,3.12-16,8.4-3,4.08-4.32,7.56-4.32,12.24V91.2c0,3.24-2,4.8-5.16,4.8-3.36,0-5.64-1.56-5.64-4.8V5.76c0-3.12,2.28-4.68,5.64-4.68,3.12,0,5.16,1.44,5.16,4.68V35.88a60.16,60.16,0,0,1-.72,6.12c4-8.52,10.56-14.88,23.16-14.88,14.28,0,22,8.64,22,23.4Z"/></svg>