<svg id="レイヤー_1" data-name="レイヤー 1" xmlns="http://www.w3.org/2000/svg" viewBox="0 0 231.42 198.72"><defs><style>.cls-1{stroke:#f2f2f2;stroke-miterlimit:10;}.cls-2{fill:#999;}</style></defs><title>Baze Linga 文字無し</title><rect class="cls-1" x="209.6" y="176.4" width="21.32" height="18.95" rx="5.02"/><rect x="155.35" y="5.2" width="21.32" height="193.02" rx="5.2"/><rect class="cls-1" x="183.28" y="36.43" width="21.32" height="161.78" rx="5.2"/><rect class="cls-1" x="183.28" y="5.2" width="21.32" height="18.95" rx="5.02"/><path class="cls-2" d="M241.67,360.16h-38.8c-3.35,0-7.09-3.88-7.09-10.18,0-6.55,3.74-10.42,7.09-10.42h38c24.23,0,33.09-13.33,33.09-31.27v-6.55c0-25-11.42-34.9-47.86-34.9H215.67c-3.15,0-6.5-3.88-6.5-9.94,0-5.81,3.35-9.69,6.5-9.69h13c31.52,0,42-10.67,42-28.12v-6.54c0-20.12-11-29.09-34.28-29.09H181.4c-2.76,0-4.53,2.42-4.53,5.82V294.71a9.16,9.16,0,0,1-8.87,9c-5.32,0-8.27-4.6-8.27-9V180.31c0-9.94,6.1-17.7,14.18-17.7h63c31.91,0,51.61,12.61,51.61,49v6.78c0,17.7-6.5,31.27-24.23,38.3,17.34,6.06,27.58,18.91,27.58,45.08v6.79C291.9,338.34,279.29,360.16,241.67,360.16Z" transform="translate(-147.39 -162.61)"/><rect class="cls-2" x="12.31" y="36.43" width="17.16" height="161.78" rx="5.2"/><path d="M229.42,360.16h-38.8c-3.35,0-7.09-3.88-7.09-10.18,0-6.55,3.74-10.42,7.09-10.42h38c24.22,0,33.09-13.33,33.09-31.27v-6.55c0-25-11.43-34.9-47.87-34.9H203.42c-3.15,0-6.5-3.88-6.5-9.94,0-5.81,3.35-9.69,6.5-9.69h13c31.52,0,42-10.67,42-28.12v-6.54c0-20.12-11-29.09-34.28-29.09H169.15c-2.76,0-4.53,2.42-4.53,5.82V294.71a9.15,9.15,0,0,1-8.87,9c-5.31,0-8.27-4.6-8.27-9V180.31c0-9.94,6.11-17.7,14.18-17.7h63c31.91,0,51.6,12.61,51.6,49v6.78c0,17.7-6.5,31.27-24.22,38.3,17.33,6.06,27.57,18.91,27.57,45.08v6.79C279.65,338.34,267.05,360.16,229.42,360.16Z" transform="translate(-147.39 -162.61)"/><rect y="36.43" width="17.34" height="161.78" rx="5.2"/></svg>