<svg id="レイヤー_1" data-name="レイヤー 1" xmlns="http://www.w3.org/2000/svg" viewBox="0 0 231.42 242.37"><defs><style>.cls-1{stroke:#f2f2f2;stroke-miterlimit:10;}.cls-2{fill:#999;}</style></defs><title>Baze Linga </title><rect class="cls-1" x="209.6" y="176.4" width="21.32" height="18.95" rx="5.02"/><rect x="155.35" y="5.2" width="21.32" height="193.02" rx="5.2"/><rect class="cls-1" x="183.28" y="36.43" width="21.32" height="161.78" rx="5.2"/><rect class="cls-1" x="183.28" y="5.2" width="21.32" height="18.95" rx="5.02"/><path class="cls-2" d="M237.77,344.24H199c-3.35,0-7.1-3.88-7.1-10.18,0-6.55,3.75-10.43,7.1-10.43h38c24.23,0,33.09-13.33,33.09-31.26v-6.55c0-25-11.42-34.9-47.86-34.9H211.77c-3.15,0-6.5-3.88-6.5-9.94,0-5.82,3.35-9.69,6.5-9.69h13c31.52,0,42-10.67,42-28.12v-6.55c0-20.11-11-29.08-34.28-29.08H177.5c-2.76,0-4.54,2.42-4.54,5.81V278.79a9.15,9.15,0,0,1-8.86,9c-5.32,0-8.27-4.6-8.27-9V164.39c0-9.94,6.1-17.7,14.18-17.7h63c31.91,0,51.61,12.61,51.61,49v6.79c0,17.7-6.5,31.27-24.23,38.3,17.34,6.06,27.58,18.9,27.58,45.08v6.79C288,322.42,275.39,344.24,237.77,344.24Z" transform="translate(-143.49 -146.69)"/><rect class="cls-2" x="12.31" y="36.43" width="17.16" height="161.78" rx="5.2"/><path d="M225.52,344.24h-38.8c-3.35,0-7.09-3.88-7.09-10.18,0-6.55,3.74-10.43,7.09-10.43h38c24.23,0,33.1-13.33,33.1-31.26v-6.55c0-25-11.43-34.9-47.87-34.9H199.52c-3.15,0-6.5-3.88-6.5-9.94,0-5.82,3.35-9.69,6.5-9.69h13c31.52,0,42-10.67,42-28.12v-6.55c0-20.11-11-29.08-34.28-29.08H165.25c-2.76,0-4.53,2.42-4.53,5.81V278.79a9.15,9.15,0,0,1-8.87,9c-5.31,0-8.27-4.6-8.27-9V164.39c0-9.94,6.11-17.7,14.18-17.7h63c31.91,0,51.6,12.61,51.6,49v6.79c0,17.7-6.5,31.27-24.23,38.3,17.34,6.06,27.58,18.9,27.58,45.08v6.79C275.75,322.42,263.14,344.24,225.52,344.24Z" transform="translate(-143.49 -146.69)"/><rect y="36.43" width="17.34" height="161.78" rx="5.2"/><path d="M175.2,382.61v-18.7H178a12,12,0,0,1,3,.29,4.41,4.41,0,0,1,1.9,1,5.11,5.11,0,0,1,1.25,1.78,5.32,5.32,0,0,1,.47,2.18,4.44,4.44,0,0,1-1.53,3.41,4.5,4.5,0,0,1,2.35,1.78,5.29,5.29,0,0,1-2.78,7.93,11.94,11.94,0,0,1-3.18.35ZM178,371.94h.89a3.2,3.2,0,0,0,2.3-.7,2.69,2.69,0,0,0,.74-2.05,2.6,2.6,0,0,0-.75-2,3.18,3.18,0,0,0-2.18-.68h-1Zm0,8h1.75a4.35,4.35,0,0,0,2.81-.75,2.59,2.59,0,0,0,.94-2.06,2.63,2.63,0,0,0-.91-2,4.71,4.71,0,0,0-3.16-.81H178Z" transform="translate(-143.49 -146.69)"/><path d="M203,370.81h2.74v11.8H203v-1.23a5.24,5.24,0,0,1-7.67-.2,6.55,6.55,0,0,1-1.59-4.5,6.39,6.39,0,0,1,1.59-4.43,5.14,5.14,0,0,1,4-1.76,5,5,0,0,1,3.7,1.69Zm-6.47,5.87a4.08,4.08,0,0,0,.91,2.76,3,3,0,0,0,2.35,1.08,3.16,3.16,0,0,0,2.45-1,4.5,4.5,0,0,0,0-5.48,3.11,3.11,0,0,0-2.43-1.05,3,3,0,0,0-2.35,1.06A4,4,0,0,0,196.54,376.68Z" transform="translate(-143.49 -146.69)"/><path d="M218.06,380h7v2.57H212.66l7.65-9.25h-6v-2.55H225.7Z" transform="translate(-143.49 -146.69)"/><path d="M243.34,377.36h-8.45a3.55,3.55,0,0,0,.94,2.31,2.91,2.91,0,0,0,2.15.85,2.74,2.74,0,0,0,1.68-.49,6.83,6.83,0,0,0,1.49-1.79l2.3,1.28a9,9,0,0,1-1.12,1.56,6.07,6.07,0,0,1-1.28,1.07,5.08,5.08,0,0,1-1.46.61,7.17,7.17,0,0,1-1.71.19,5.56,5.56,0,0,1-4.24-1.69,6.35,6.35,0,0,1-1.6-4.53,6.58,6.58,0,0,1,1.55-4.54,5.36,5.36,0,0,1,4.14-1.7,5.28,5.28,0,0,1,4.12,1.66,6.52,6.52,0,0,1,1.51,4.56Zm-2.8-2.23a2.6,2.6,0,0,0-2.75-2.18,2.83,2.83,0,0,0-.93.15,2.64,2.64,0,0,0-.79.43,2.7,2.7,0,0,0-.61.69,3.13,3.13,0,0,0-.39.91Z" transform="translate(-143.49 -146.69)"/><path d="M267.25,363.91v16h5.5v2.65h-8.32v-18.7Z" transform="translate(-143.49 -146.69)"/><path d="M279.46,365.91a1.78,1.78,0,0,1,1.77-1.76,1.78,1.78,0,0,1,1.78,1.77,1.75,1.75,0,0,1-.52,1.26,1.77,1.77,0,0,1-2.51,0A1.72,1.72,0,0,1,279.46,365.91Zm3.13,4.9v11.8h-2.72v-11.8Z" transform="translate(-143.49 -146.69)"/><path d="M291,370.81h2.74v1.09a4.46,4.46,0,0,1,3.22-1.41,4.09,4.09,0,0,1,3.21,1.29,5.34,5.34,0,0,1,1,3.6v7.23h-2.73V376a4.36,4.36,0,0,0-.49-2.41,2,2,0,0,0-1.72-.68,2.11,2.11,0,0,0-1.93.9,6.21,6.21,0,0,0-.55,3.09v5.69H291Z" transform="translate(-143.49 -146.69)"/><path d="M321,382.33c0,.56,0,1.05-.06,1.48a8.23,8.23,0,0,1-.15,1.12,4.91,4.91,0,0,1-1.14,2.29,5.53,5.53,0,0,1-4.39,1.84,5.91,5.91,0,0,1-3.89-1.27,5.21,5.21,0,0,1-1.82-3.63h2.74a3.07,3.07,0,0,0,.52,1.35,2.93,2.93,0,0,0,2.47,1.1c2,0,3-1.22,3-3.67v-1.65a5.2,5.2,0,0,1-7.69-.08,6.49,6.49,0,0,1-1.55-4.42,6.82,6.82,0,0,1,1.44-4.39,5,5,0,0,1,4.1-1.91,4.73,4.73,0,0,1,3.7,1.66v-1.34H321Zm-2.62-5.59a3.93,3.93,0,0,0-.92-2.75,3.06,3.06,0,0,0-2.39-1.06,2.93,2.93,0,0,0-2.44,1.15,4.2,4.2,0,0,0-.81,2.67,4.16,4.16,0,0,0,.81,2.64,2.93,2.93,0,0,0,2.44,1.13,3,3,0,0,0,2.48-1.14A4.11,4.11,0,0,0,318.37,376.74Z" transform="translate(-143.49 -146.69)"/><path d="M338.09,370.81h2.74v11.8h-2.74v-1.23a5.24,5.24,0,0,1-7.67-.2,6.55,6.55,0,0,1-1.59-4.5,6.39,6.39,0,0,1,1.59-4.43,5.14,5.14,0,0,1,4-1.76,5,5,0,0,1,3.69,1.69Zm-6.47,5.87a4.08,4.08,0,0,0,.91,2.76,3,3,0,0,0,2.35,1.08,3.14,3.14,0,0,0,2.45-1,4.5,4.5,0,0,0,0-5.48A3.09,3.09,0,0,0,334.9,373a3,3,0,0,0-2.35,1.06A4,4,0,0,0,331.62,376.68Z" transform="translate(-143.49 -146.69)"/></svg>