<svg xmlns="http://www.w3.org/2000/svg" viewBox="0 0 256 256"><title>icons</title><path d="M119,170a95.73,95.73,0,0,0,.8-13.6c.2-10.8,3.6-19.4,10.6-27,3-3.2,5.4-5.2,13.8-11,11-7.8,14.4-10.8,17.4-15.4A27.4,27.4,0,0,0,166,87.4c0-5.6-3-12.2-7.8-17-6.6-6.6-16-10-27.4-10q-21.3,0-32.4,13.8c-3.6,4.6-5.4,8.6-8,17.6l-11-2.4C82.6,79,84.6,74.6,89.2,69q14.4-17.4,41.4-17.4c27.2,0,46,15.2,46,37.2a34.21,34.21,0,0,1-11,25.4c-2.2,2.2-4,3.6-11.8,9.2-11.6,8.2-14.8,11-17.6,15.2-3.8,5.2-5.6,11.6-5.6,19a93.91,93.91,0,0,0,.8,12.4Zm13.6,19.8v14.6H117.8V189.8Z"/></svg>