<svg id="レイヤー_1" data-name="レイヤー 1" xmlns="http://www.w3.org/2000/svg" viewBox="0 0 884.84 141.14"><title>title</title><path d="M42.75,30.6c2.7,0,4.2,2.1,4.2,5.1s-1.5,5.4-4.2,5.4H30.9V69.3C34.5,67.65,38,66.15,41,64.65a5.6,5.6,0,0,1,2.4-.6c1.8,0,3,1,3.9,2.85A7.34,7.34,0,0,1,48,69.75,4.49,4.49,0,0,1,45.15,74C41,76.2,36,78.6,30.9,80.85v44.09c0,9.6-4,13.5-15.3,13.5a53.29,53.29,0,0,1-10-.9,4.72,4.72,0,0,1-4-4.94,5,5,0,0,1,.15-1.5c.45-2.86,2.1-4.21,4.05-4.21a3.91,3.91,0,0,1,1.35.16,43.6,43.6,0,0,0,7.65.75c4.5,0,5.1-1.06,5.1-5.25V85.35C15.3,87.15,11,88.65,6.9,90c-.6,0-1.2.15-1.65.15-2.25,0-3.9-1.35-4.8-3.9A8.25,8.25,0,0,1,0,83.85,4.25,4.25,0,0,1,3.15,79.5c5.1-1.65,10.8-3.6,16.65-5.85V41.1H4.05c-2.7,0-4-2.4-4-5.4s1.5-5.1,4.2-5.1H19.8V5.7c0-2.85,2.25-4.35,5.7-4.35s5.4,1.5,5.4,4.35V30.6ZM63.3,117.44c0,7.2.9,8,30.75,8,21.74,0,26.69-2.25,28.79-5.84,2-3.3,2.85-10.35,3.15-17.4.15-3.9,2.4-5.55,5.4-5.55h.45c3.6.15,5.7,2,5.7,5.55v.3c-.45,9.9-1.8,19-5.1,24.29-4.2,6.9-11,9.6-39.44,9.6-37.65,0-41.1-2.24-41.1-16.94V21.45C51.9,12.75,56,8.7,65.1,8.7h54.59C129,8.7,133,12.75,133,21.45v41.1C133,71.1,129,75,119.69,75H63.3ZM68,19.35c-3.3,0-4.65.75-4.65,4.2v41.1h23V19.35Zm29.4,45.3H117c3.3,0,4.65-.6,4.65-4.05v-37c0-3.45-1.35-4.2-4.65-4.2H97.35Z"/><path d="M272.24,118.94c0,9.61-4.64,13.66-13.94,13.66H179.4c-9.3,0-14-4-14-13.66V22.35c0-9.75,4.65-13.8,14-13.8h78.9c9.3,0,13.94,4,13.94,13.8Zm-12-56.09V24.45c0-3.45-1.8-4.5-5.1-4.5h-72.6c-3.3,0-5.1,1.05-5.1,4.5v38.4Zm-82.8,53.84c0,3.46,1.8,4.5,5.1,4.5h72.6c3.3,0,5.1-1,5.1-4.5V74.1h-82.8Z"/><path d="M303.6,54.15c-2.7,0-4.2-2.1-4.2-5.1s1.5-5.25,4.2-5.25h23.55V22.35c-6.15,1.2-12.15,2.25-17.85,3h-1.05c-3.3,0-5.1-1.8-5.55-5v-1c0-2.7,1.65-4.2,4.65-4.5,14.85-1.65,31.5-5.7,43-10.65a8.72,8.72,0,0,1,3.15-.75,5,5,0,0,1,4.65,3.3,7,7,0,0,1,.6,2.85c0,2.25-1.35,4.05-4.05,5-4.8,1.8-10.65,3.6-16.8,5.25v24h22.2c2.7,0,4.2,2.1,4.2,5.25s-1.5,5.1-4.2,5.1H338v22.5h7.5c8.25,0,12.3,3.3,12.3,11.4v34.64c0,8.25-4.05,11.55-12.3,11.55h-27.3c-8.1,0-12.3-3.3-12.3-11.55V88.05c0-8.1,4.2-11.4,12.3-11.4h9V54.15Zm13.5,65.54c0,2.86,1.5,3.75,4.35,3.75H342.3c2.85,0,4.35-.89,4.35-3.75V90.6c0-2.85-1.5-3.75-4.35-3.75H321.45c-2.85,0-4.35.9-4.35,3.75Zm46.2-49.64c-2.55,0-4.05-2.1-4.05-5.1s1.5-5.1,4.05-5.1h39.75a128.28,128.28,0,0,0,9.89-25.2c.75-2.7,2.41-3.9,4.5-3.9a7.45,7.45,0,0,1,1.8.3,4.87,4.87,0,0,1,4.36,4.8,7.55,7.55,0,0,1-.31,1.8A130.78,130.78,0,0,1,414,59.85h20.54c2.55,0,3.9,2.1,3.9,5.1s-1.35,5.1-3.9,5.1H403.2V90.6h27.74c2.85,0,4.2,2,4.2,5.25s-1.35,5.25-4.2,5.25H403.2v34.49c0,2.85-2.4,4.5-5.55,4.5s-5.7-1.65-5.7-4.5V101.1H366.6c-2.85,0-4.2-2.1-4.2-5.25s1.35-5.25,4.2-5.25H392V70.05Zm67.94-52.5c2.7,0,4.2,1.95,4.2,5.1s-1.5,5.1-4.2,5.1H366.3c-2.7,0-4.2-2.1-4.2-5.1s1.5-5.1,4.2-5.1H392V5.1c0-2.55,2.25-4,5.7-4s5.55,1.5,5.55,4.05V17.55ZM378.15,30.3a5.09,5.09,0,0,1,4.65,3.15,103.32,103.32,0,0,1,5.85,16.65,4.77,4.77,0,0,1,.3,1.95c0,2.55-1.65,4.2-4.2,4.8a6.15,6.15,0,0,1-1.65.15c-2.25,0-4.05-1.35-4.65-4A95.87,95.87,0,0,0,373.2,36.9a4.2,4.2,0,0,1,2.85-6.3A11.77,11.77,0,0,1,378.15,30.3Z"/><path d="M512.85,17.25H468.6c-2.25,0-3.6-1.65-3.6-4.2s1.35-4.5,3.6-4.5h44.25V4.2c0-3,1.5-4.2,5.1-4.2,3.45,0,5.1,1.2,5.1,4.2V8.55h36.59c8.85,0,12.3,3.3,12.3,11v6.3h12.75c2.25,0,3.75,2.1,3.75,4.5,0,2.7-1.5,4.5-3.75,4.5H571.94v6.3c0,7.65-3.45,10.95-12.3,10.95H523.05v7.8h49.34c2.1,0,3.6,1.8,3.6,4.2s-1.35,4.5-3.6,4.5H523.05v8h60.44c2.25,0,3.9,1.8,3.9,4.35,0,2.7-1.5,4.65-3.75,4.65H454.05c-2.4,0-3.75-1.8-3.75-4.5,0-2.55,1.2-4.5,3.6-4.5h59v-8H465c-2.25,0-3.6-2.1-3.6-4.5,0-2.25,1.35-4.2,3.45-4.2h48v-7.8H468.6c-2.25,0-3.6-1.8-3.6-4.2s1.35-4.5,3.6-4.5h44.25V34.8h-59c-2.25,0-3.75-1.8-3.75-4.5s1.5-4.5,3.75-4.5h59Zm-33,120.14c-9,0-12.6-3.15-12.6-10.95V103.8c0-7.65,3.6-10.8,12.6-10.8h77.54c9,0,12.75,3.15,12.75,10.8v22.64c0,7.8-3.75,10.95-12.75,10.95Zm79.79-26.69v-5.55c0-2.7-1.5-3.45-4.19-3.45H482c-2.85,0-4.2.75-4.2,3.45v5.55Zm-81.89,14.55c0,2.69,1.35,3.44,4.2,3.44h73.5c2.69,0,4.19-.75,4.19-3.44V119.1H477.75Zm84-99.45V20.7c0-2.7-1.2-3.45-4-3.45H523.05V25.8Zm-38.7,17.55H557.7c2.85,0,4-.9,4-3.6v-5h-38.7Z"/><path d="M640.5,30.9c2.55,0,4,2,4,5s-1.5,5.1-4,5.1h-10a96.25,96.25,0,0,0,14.25,25.2,5.58,5.58,0,0,1,1.65,3.9,4.79,4.79,0,0,1-1.5,3.45,4,4,0,0,1-3.3,1.65,5.17,5.17,0,0,1-4.2-2.4c-3.6-5.7-7.05-14.1-9.3-21.75.9,8,2,19.2,2,25.35v60.29c0,2.85-2,4.5-5.4,4.5s-5.4-1.65-5.4-4.5V85.35a284.9,284.9,0,0,1,2.25-29.85C618.6,71,612.3,87.9,605.85,98.1a5,5,0,0,1-4.2,2.4,6.59,6.59,0,0,1-3.3-1A5.88,5.88,0,0,1,597.3,92c9-13.35,17.1-33,20.4-51H603.45c-2.7,0-4.2-2.25-4.2-5.1s1.5-5,4.2-5H619.2V4.65c0-2.85,2.1-4.35,5.4-4.35S630,1.8,630,4.65V30.9Zm55.2,68.25c9.45,15,23.24,24.9,39.74,30a5.14,5.14,0,0,1,3.6,5,8.78,8.78,0,0,1-.3,1.94c-.9,2.4-2.7,3.9-5.1,3.9a5.29,5.29,0,0,1-2.1-.45,80.1,80.1,0,0,1-43.94-35.84c-6.45,16.5-19.8,28.64-41,35.84a9.7,9.7,0,0,1-3,.6,4.87,4.87,0,0,1-4.65-3.15,7.62,7.62,0,0,1-.45-2.55,4.68,4.68,0,0,1,3.15-4.65c19.8-6.89,31.5-16.64,36.9-30.59H660.75c-7.65,0-11.1-3-11.1-10.35V70.5c0-7.65,3.45-10.8,11.1-10.8h22.8V47.25h-12.3c-2.4,0-4.2-1.8-4.2-5.1,0-2.85,1.8-4.8,4.2-4.8H706.8c2.4,0,4.2,1.95,4.2,4.8,0,3.3-1.8,5.1-4.2,5.1H693.9V59.7h23.84c7.65,0,11.25,3.15,11.25,10.8V88.8c0,7.35-3.6,10.35-11.25,10.35ZM736.34,40.5a5.19,5.19,0,0,1,3,4.65,5.88,5.88,0,0,1-.6,2.7,5.29,5.29,0,0,1-4.8,3.3,6.22,6.22,0,0,1-3-.9C714,41.25,699.45,27,689.7,14.4c-.6-.75-1.05-1.2-1.65-1.2s-1.2.45-1.95,1.35c-8.7,12.3-21.6,27-36.45,36.45a5.79,5.79,0,0,1-3,.9,5.25,5.25,0,0,1-4.35-2.7,6.73,6.73,0,0,1-.75-2.85A5,5,0,0,1,644,42a120.48,120.48,0,0,0,35.4-35.85,9.87,9.87,0,0,1,8.4-4.35,9.67,9.67,0,0,1,7.8,3.6C707.7,20.7,722.1,33.15,736.34,40.5ZM681.15,90c1.5-6.9,1.8-14,2.1-20.85H664.5c-2.85,0-4,.75-4,3.6v14c0,2.7,1.2,3.3,4,3.3Zm33,0c2.85,0,4.05-.6,4.05-3.3v-14c0-2.85-1.2-3.6-4.05-3.6H693.45A160.94,160.94,0,0,1,691.35,90Z"/><path d="M811.5,98.25c-18.6.9-36.6,1.35-51.9,1.5a5.2,5.2,0,0,1-5.55-5.25c0-3.3,1.8-5.25,5-5.25,12.3,0,25.65-.15,39.6-.3,2.7-2,5.25-3.9,7.8-5.85-9.9-7.8-18.15-13.5-27.75-18.6a4,4,0,0,1-2.4-3.6,5.22,5.22,0,0,1,1.35-3.3,5.53,5.53,0,0,1,4.2-2,7.88,7.88,0,0,1,3.45.9C788.1,58.2,791,60,794,61.8A100.32,100.32,0,0,0,809.4,46.35h-39c-3,0-4.65,1-4.65,4.35V62.85c0,3-2.25,4.5-5.7,4.5s-5.7-1.5-5.7-4.65v-14c0-8.4,4-12,13-12h44.25V23.55H757.2c-2.55,0-4.05-2.4-4.05-5.25s1.5-5,4.05-5h54.45V5.85c0-3.45,1.65-4.95,5.4-4.95,3.9,0,5.7,1.5,5.7,4.95v7.5h58.19c2.55,0,3.9,2.1,3.9,5s-1.35,5.25-3.9,5.25H822.75v13.2h47.39c9,0,13.05,3.6,13.05,12v14.1c0,3.15-2.25,4.65-5.7,4.65s-5.7-1.5-5.7-4.5V50.7c0-3.3-1.65-4.35-4.8-4.35H822.3A141,141,0,0,1,801.9,67.2q6.52,4.5,12.6,9.45A174.17,174.17,0,0,0,836.25,55.5a6.44,6.44,0,0,1,5-2.7,6.3,6.3,0,0,1,3.15.9,5.24,5.24,0,0,1,2.85,4.35,3.61,3.61,0,0,1-1.05,2.7A230.26,230.26,0,0,1,813.9,88.5c14.7-.6,29.55-1.2,44.24-2.25-3.29-3.3-6.44-6.15-9.44-8.7a3.69,3.69,0,0,1-1.35-2.85A4.32,4.32,0,0,1,849.6,71a5.84,5.84,0,0,1,3.45-1,6.5,6.5,0,0,1,4.2,1.5,240.73,240.73,0,0,1,26.09,26.4,6.39,6.39,0,0,1,1.35,3.75,4.71,4.71,0,0,1-2.1,3.9,5.11,5.11,0,0,1-3.45,1.2,5.62,5.62,0,0,1-4.5-2.1c-2.4-2.85-5.25-6.3-8.25-9.6-14.54,1.2-28.94,2.1-43.49,2.85v38.39c0,2.7-2.25,4.5-5.7,4.5s-5.7-1.8-5.7-4.5ZM798,110a5.22,5.22,0,0,1-1.35,3.3c-8.55,9-22.65,17.39-34,22.19a4.75,4.75,0,0,1-2.4.6,5.59,5.59,0,0,1-5.1-3.44,6,6,0,0,1-.6-2.71,5.42,5.42,0,0,1,3.45-4.95c10.65-4.5,21.75-11.09,29.7-18.74a6,6,0,0,1,4.2-1.8,6.17,6.17,0,0,1,3.75,1.2A5.43,5.43,0,0,1,798,110Zm45.45-7.35a6.93,6.93,0,0,1,4.65,2.1c7.65,7.8,21.59,16,31.49,19.94a5.65,5.65,0,0,1,3.75,5.25,5.71,5.71,0,0,1-.6,2.55c-.9,2.25-3.15,3.3-5.55,3.3a6.74,6.74,0,0,1-3-.6C861.89,130,847.65,120.6,839,111.9a5.26,5.26,0,0,1-1.65-3.75,5.38,5.38,0,0,1,2.55-4.35A6.87,6.87,0,0,1,843.45,102.6Z"/></svg>