<svg id="レイヤー_1" data-name="レイヤー 1" xmlns="http://www.w3.org/2000/svg" viewBox="0 0 1266.58 97.44"><title>title</title><path d="M12.12,95.28C3.6,95.28,0,91.56,0,82.44V14.76c0-9.24,3.6-13,12.12-13H40.44c17.28,0,27.24,8.28,27.24,22.68,0,11.4-4.92,18.12-15.24,21.48,12.24,2.52,18.48,10.44,18.48,23.4,0,16.32-10.68,25.92-29.16,25.92Zm27.72-54c10.32,0,16.32-5.76,16.32-15.36,0-9.36-5.64-14.16-16.56-14.16h-25c-2.28,0-3.48,1.44-3.48,3.84V41.28ZM11.16,81.36c0,2.64,1.2,4,3.84,4H40.44c12.12,0,18.6-6,18.6-17C59,57,52.44,51.12,40.2,51.12h-29Z"/><path d="M90.48,12.24c-3,0-4.68-2.28-4.68-5.16S87.48,1.8,90.48,1.8h55.2c4.08,0,6.24,2.64,6.24,6.48s-1.44,5.88-4.08,9.24L99.48,80a72.42,72.42,0,0,1-5.28,5.28c2.52-.24,5.64-.48,7.68-.48h47.28c3,0,4.56,2.16,4.56,5s-1.68,5.4-4.8,5.4H88c-3.84,0-6.36-2.76-6.36-6.6s1.56-6,4-9L134.28,17a71.18,71.18,0,0,1,5.28-5.4,65.14,65.14,0,0,1-7.56.6Z"/><path d="M201.48,54.36c2.88,0,4.56,2,4.56,5.4S204.24,65,201.36,65H168.84c-2.88,0-4.68-1.92-4.68-5.28s1.68-5.4,4.56-5.4Z"/><path d="M233.4,81c0,2.76,1.8,3.84,4.44,3.84h43c3.12,0,4.8,2.16,4.8,5.16s-1.68,5.28-4.8,5.28H234.36c-8.52,0-12.24-3.72-12.24-12.84V14.76c0-9.24,3.72-13,12.24-13h45.36c3.12,0,4.8,2.16,4.8,5.16s-1.68,5.28-4.8,5.28H237.48c-2.88,0-4.08,1.32-4.08,4.2V41.28h40.92c3,0,4.68,2.16,4.68,5.16,0,2.76-1.8,5-4.68,5H233.4Z"/><path d="M379.55,48.6c0,29.52-16.08,48.6-41.75,48.6s-42-19-42-48.72C295.8,19.08,312,0,337.8,0S379.55,19,379.55,48.6Zm-71.87,0c0,23.16,11.76,38.16,30.12,38.16,18.71,0,29.87-14.76,29.87-38.88,0-22.68-11.63-37.56-29.87-37.56C319.2,10.32,307.68,25.44,307.68,48.6Z"/><path d="M497,4.56a5,5,0,0,1,5.16-3.48,13.22,13.22,0,0,1,2.16.24c2.52.72,4.44,2.52,4.44,4.92a4.82,4.82,0,0,1-.36,1.8l-31,82.56c-1.56,4.08-4.44,5.4-8,5.4s-6.6-1.32-8.16-5.52L430.43,8.28a5.65,5.65,0,0,1-.35-1.92,5.45,5.45,0,0,1,4.43-5A6.84,6.84,0,0,1,436.67,1a5.14,5.14,0,0,1,5.16,3.48l23.4,65.88c1.56,4.44,2.88,10,4.2,14.76,1.32-4.92,2.76-10.32,4.32-14.88Z"/><path d="M580.07,61.92c0,20.88-11.52,35.28-30.24,35.28-19.8,0-31.32-13.92-31.32-35.28,0-20.76,11.64-34.8,31.08-34.8C568.79,27.12,580.07,41,580.07,61.92Zm-50.52.36c0,15.24,7.2,25.68,19.56,25.68C562.19,88,569,77.76,569,61.8c0-15.12-6.84-25.44-19.08-25.44C537,36.36,529.55,46.32,529.55,62.28Z"/><path d="M595.67,32.76c0-3.12,2.28-4.68,5.64-4.68,3,0,5.4,1.56,5.4,4.68V35.4A51.86,51.86,0,0,1,606,41a22.5,22.5,0,0,1,21-13.68,21,21,0,0,1,4.8.6,4,4,0,0,1,3.84,4.32,13.36,13.36,0,0,1-.24,2c-.48,2.52-2.16,4.68-4.68,4.68a3.32,3.32,0,0,1-1.08-.12,24.18,24.18,0,0,0-5.76-.72c-5.16.12-9.12,2.76-12.12,6.6a21.53,21.53,0,0,0-5,13.32V91.2c0,3.24-2.4,4.8-5.4,4.8-3.36,0-5.64-1.56-5.64-4.8Z"/><path d="M652.91,14.28c0-3.12,2-4.8,5.4-4.8,3.12,0,5.4,1.68,5.4,4.8V28.8h15.36c3,0,4.44,1.92,4.44,4.8s-1.56,4.68-4.44,4.68H663.71v40.2c0,5.88,2.52,8.4,7,8.4a13,13,0,0,0,7.08-2,4.89,4.89,0,0,1,2.16-.6,4.45,4.45,0,0,1,4,3.12,6.84,6.84,0,0,1,.48,2.64,4.7,4.7,0,0,1-2.52,4.32A24.86,24.86,0,0,1,670,97c-9.84,0-17-4.92-17-17.52V38.28h-9.36c-2.88,0-4.2-1.92-4.2-4.68s1.32-4.8,4.32-4.8h9.24Z"/><path d="M734.75,47.64c0-7.92-4.32-11.4-13.8-11.4-8.76,0-13.08,3.36-15.12,8.88a4.59,4.59,0,0,1-4.68,3.12,7,7,0,0,1-2.76-.48c-2.28-.72-4-2.4-4-4.56a6,6,0,0,1,.24-1.44c1.2-3.72,4.32-7.2,7.08-9.36,4.2-3.24,9.6-5.28,19.32-5.28,16.08,0,24,6.36,24,20.52V80.4A39.17,39.17,0,0,0,746.39,91a4.26,4.26,0,0,1,.24,1.2c0,1.92-1.8,3.6-4.8,3.84h-1.08c-2.4,0-4.56-.72-5-2.88a34.13,34.13,0,0,1-.72-6c-4.56,5.16-10.92,9.84-22.8,9.84C699,97,691,89.52,691,77.16c0-11.28,6.72-18.48,18.12-21.6,6.6-1.8,12.84-2.52,25.68-2.76Zm0,13.8c-14,.36-20.64,1.56-25.44,4S702,71.52,702,77.28c0,6.24,4.8,10.44,12,10.44a22.6,22.6,0,0,0,17.64-8.52c2.28-2.88,3.12-5.16,3.12-9.72Z"/><path d="M764.63,32.76c0-3.12,2.28-4.68,5.64-4.68,3,0,5.4,1.56,5.4,4.68V35.4A51.86,51.86,0,0,1,775,41a22.5,22.5,0,0,1,21-13.68,21,21,0,0,1,4.8.6,4,4,0,0,1,3.84,4.32,13.36,13.36,0,0,1-.24,2c-.48,2.52-2.16,4.68-4.68,4.68a3.32,3.32,0,0,1-1.08-.12,24.18,24.18,0,0,0-5.76-.72c-5.16.12-9.12,2.76-12.12,6.6a21.53,21.53,0,0,0-5,13.32V91.2c0,3.24-2.4,4.8-5.4,4.8-3.36,0-5.64-1.56-5.64-4.8Z"/><path d="M873.23,61.92c0,20.88-11.52,35.28-30.24,35.28-19.8,0-31.32-13.92-31.32-35.28,0-20.76,11.64-34.8,31.08-34.8C862,27.12,873.23,41,873.23,61.92Zm-50.52.36c0,15.24,7.2,25.68,19.56,25.68,13.08,0,19.92-10.2,19.92-26.16,0-15.12-6.84-25.44-19.08-25.44C830.15,36.36,822.71,46.32,822.71,62.28Z"/><path d="M921.59,54.36c2.88,0,4.56,2,4.56,5.4S924.35,65,921.47,65H889c-2.88,0-4.68-1.92-4.68-5.28s1.68-5.4,4.56-5.4Z"/><path d="M977.75,42.36c18.72,4,28.92,10.32,28.92,27.72,0,15.48-11.88,27.12-33.36,27.12-27.36,0-33-14.16-35.88-23.88a8.26,8.26,0,0,1-.24-1.56c0-2.64,2-4.44,4.56-5a11.82,11.82,0,0,1,2-.24,5.15,5.15,0,0,1,5.28,3.6c2.16,8,6.12,17,23.64,17,13.68,0,22.2-6.6,22.2-16.92,0-9.84-5.4-14.16-19.56-17l-9.6-2c-18-3.72-26.16-10.56-26.16-26.28C939.59,12.24,949,0,971.51,0c21.6,0,29,11.52,31.68,20.16a4.82,4.82,0,0,1,.36,1.8c0,2.52-2,4.32-4.44,4.8a10.57,10.57,0,0,1-2,.24,5.33,5.33,0,0,1-5.28-3.48c-1.92-6.84-7-13.56-20.28-13.56-13.92,0-20.28,7-20.28,14.88,0,8.64,4.2,13.08,17.64,15.72Z"/><path d="M1028.51,64.08c.24,14.76,7.56,24,20.52,24,8.64,0,13.44-4.32,16.32-10.68a4.71,4.71,0,0,1,4.32-3,9.35,9.35,0,0,1,2.52.48c2,.6,3.72,2,3.72,4.2a3.7,3.7,0,0,1-.6,2.16c-3.84,7.92-10.8,15.84-26.4,15.84-19.68,0-31.08-13.92-31.08-34.68s10.8-35.28,30.36-35.28c17.52,0,27.36,13.68,28.56,29.4v1c0,4.32-2.28,6.6-6,6.6ZM1064,55.32c1.32,0,1.8-.48,1.8-1.56v-.6c-1.44-8.52-6.6-17.28-17.64-17.28-11.52,0-17.76,7.68-19.32,19.44Z"/><path d="M1091.51,32.76c0-3.12,2.28-4.68,5.64-4.68,3,0,5.4,1.56,5.4,4.68V35.4a51.86,51.86,0,0,1-.72,5.64,22.5,22.5,0,0,1,21-13.68,21,21,0,0,1,4.8.6,4,4,0,0,1,3.84,4.32,13.36,13.36,0,0,1-.24,2c-.48,2.52-2.16,4.68-4.68,4.68a3.32,3.32,0,0,1-1.08-.12,24.18,24.18,0,0,0-5.76-.72c-5.16.12-9.12,2.76-12.12,6.6a21.53,21.53,0,0,0-5,13.32V91.2c0,3.24-2.4,4.8-5.4,4.8-3.36,0-5.64-1.56-5.64-4.8Z"/><path d="M1168.79,27.36c15.83,0,22.31,8.64,25.31,16.2a6,6,0,0,1,.36,1.92,4.63,4.63,0,0,1-3.6,4.32,7.44,7.44,0,0,1-2.76.48A4,4,0,0,1,1184,47.4c-2.28-6.12-5.88-10.8-15-10.8-12.48,0-19.32,10.56-19.32,25.8,0,15.72,6.72,25.68,19.44,25.68,9.35,0,13.07-4.56,15.35-11a4.51,4.51,0,0,1,4.44-3.24,6.27,6.27,0,0,1,2.52.48c2.16.48,3.84,1.92,3.84,4.08a5.06,5.06,0,0,1-.48,2.16c-3.24,8.28-9.6,16.92-25.91,16.92-19.44,0-30.36-14.28-30.36-34.8S1149.11,27.36,1168.79,27.36ZM1156,21a3.81,3.81,0,0,1-2.4,1,2.81,2.81,0,0,1-2-.84,2.68,2.68,0,0,1-1.08-2,3.78,3.78,0,0,1,1-2.28l10.68-12.72c1.68-1.92,3.72-2.76,6.72-2.76s5.15,1,6.71,2.76l10.56,12.6a3.78,3.78,0,0,1,1,2.28,2.53,2.53,0,0,1-1,2,2.53,2.53,0,0,1-2,1,3.81,3.81,0,0,1-2.4-1L1168.79,9.84Z"/><path d="M1266.58,61.92c0,20.88-11.52,35.28-30.24,35.28-19.8,0-31.32-13.92-31.32-35.28,0-20.76,11.64-34.8,31.08-34.8C1255.3,27.12,1266.58,41,1266.58,61.92Zm-50.52.36c0,15.24,7.2,25.68,19.56,25.68,13.08,0,19.92-10.2,19.92-26.16,0-15.12-6.84-25.44-19.08-25.44C1223.5,36.36,1216.06,46.32,1216.06,62.28Z"/></svg>